<svg width="65" height="65" viewBox="0 0 65 65" fill="white" xmlns="http://www.w3.org/2000/svg">
<rect x="1" y="1" width="63" height="63" rx="9"  stroke="#E6E4FF" stroke-width="2"/>
<path d="M20.64 40C20.464 40 20.328 39.952 20.232 39.856C20.136 39.744 20.088 39.608 20.088 39.448V23.776C20.088 23.6 20.136 23.464 20.232 23.368C20.328 23.256 20.464 23.2 20.64 23.2H30.552C30.728 23.2 30.864 23.256 30.96 23.368C31.056 23.464 31.104 23.6 31.104 23.776V24.688C31.104 24.864 31.056 25 30.96 25.096C30.864 25.192 30.728 25.24 30.552 25.24H22.392V30.496H30.024C30.2 30.496 30.336 30.552 30.432 30.664C30.528 30.76 30.576 30.896 30.576 31.072V31.96C30.576 32.12 30.528 32.256 30.432 32.368C30.336 32.464 30.2 32.512 30.024 32.512H22.392V37.96H30.744C30.92 37.96 31.056 38.008 31.152 38.104C31.248 38.2 31.296 38.336 31.296 38.512V39.448C31.296 39.608 31.248 39.744 31.152 39.856C31.056 39.952 30.92 40 30.744 40H20.64ZM35.1947 40C35.0187 40 34.8827 39.952 34.7867 39.856C34.6907 39.744 34.6427 39.608 34.6427 39.448V23.776C34.6427 23.6 34.6907 23.464 34.7867 23.368C34.8827 23.256 35.0187 23.2 35.1947 23.2H36.2987C36.4907 23.2 36.6347 23.248 36.7307 23.344C36.8267 23.424 36.8827 23.488 36.8987 23.536L44.8667 35.776V23.776C44.8667 23.6 44.9147 23.464 45.0107 23.368C45.1067 23.256 45.2427 23.2 45.4187 23.2H46.5707C46.7467 23.2 46.8827 23.256 46.9787 23.368C47.0907 23.464 47.1467 23.6 47.1467 23.776V39.424C47.1467 39.584 47.0907 39.72 46.9787 39.832C46.8827 39.944 46.7547 40 46.5947 40H45.4427C45.2667 40 45.1307 39.952 45.0347 39.856C44.9547 39.76 44.8987 39.696 44.8667 39.664L36.9227 27.544V39.448C36.9227 39.608 36.8667 39.744 36.7547 39.856C36.6587 39.952 36.5227 40 36.3467 40H35.1947Z" fill="#3D4754"/>
</svg>
