<svg width="208" height="208" viewBox="0 0 208 208" fill="none" xmlns="http://www.w3.org/2000/svg">
<g opacity="0.7" filter="url(#filter0_b_691_3330)">
<path d="M104 0C83.4308 0 63.3234 6.09949 46.2207 17.5272C29.118 28.9548 15.7881 45.1974 7.91657 64.2009C0.0450614 83.2044 -2.01448 104.115 1.99838 124.289C6.01124 144.463 15.9163 162.994 30.4609 177.539C45.0056 192.084 63.5366 201.989 83.7106 206.002C103.885 210.014 124.796 207.955 143.799 200.083C162.803 192.212 179.045 178.882 190.473 161.779C201.901 144.677 208 124.569 208 104C208 76.4175 197.043 49.9647 177.539 30.4609C158.035 10.9571 131.583 0 104 0ZM159.321 110.649L70.1777 155.22C69.0449 155.786 67.7862 156.053 66.5211 155.996C65.256 155.939 64.0265 155.559 62.9495 154.893C61.8725 154.226 60.9837 153.296 60.3674 152.19C59.7512 151.083 59.428 149.838 59.4286 148.571V59.4286C59.4293 58.1628 59.7534 56.9182 60.3701 55.8129C60.9869 54.7075 61.8759 53.7781 62.9527 53.1128C64.0295 52.4475 65.2585 52.0684 66.5229 52.0115C67.7874 51.9545 69.0455 52.2216 70.1777 52.7874L159.321 97.3588C160.553 97.9764 161.589 98.9247 162.313 100.098C163.037 101.27 163.421 102.622 163.421 104C163.421 105.378 163.037 106.73 162.313 107.902C161.589 109.075 160.553 110.024 159.321 110.641V110.649Z" fill="#0B4B5B"/>
</g>
<defs>
<filter id="filter0_b_691_3330" x="-10" y="-10" width="228" height="228" filterUnits="userSpaceOnUse" color-interpolation-filters="sRGB">
<feFlood flood-opacity="0" result="BackgroundImageFix"/>
<feGaussianBlur in="BackgroundImageFix" stdDeviation="5"/>
<feComposite in2="SourceAlpha" operator="in" result="effect1_backgroundBlur_691_3330"/>
<feBlend mode="normal" in="SourceGraphic" in2="effect1_backgroundBlur_691_3330" result="shape"/>
</filter>
</defs>
</svg>
