<svg width="65" height="65" viewBox="0 0 65 65" fill="none" xmlns="http://www.w3.org/2000/svg">
<rect x="1" y="1" width="63" height="63" rx="9" fill="white" stroke="#E6E4FF" stroke-width="2"/>
<path d="M15.8 41C15.6933 41 15.6 40.96 15.52 40.88C15.44 40.8 15.4 40.7067 15.4 40.6C15.4 40.5333 15.4067 40.46 15.42 40.38L20.38 27.44C20.4333 27.3067 20.5067 27.2 20.6 27.12C20.6933 27.04 20.8333 27 21.02 27H22.38C22.5533 27 22.6867 27.04 22.78 27.12C22.8867 27.2 22.9667 27.3067 23.02 27.44L27.96 40.38C27.9867 40.46 28 40.5333 28 40.6C28 40.7067 27.96 40.8 27.88 40.88C27.8 40.96 27.7067 41 27.6 41H26.58C26.42 41 26.3 40.96 26.22 40.88C26.1533 40.8 26.1067 40.7267 26.08 40.66L24.98 37.82H18.42L17.32 40.66C17.3067 40.7267 17.26 40.8 17.18 40.88C17.1 40.96 16.98 41 16.82 41H15.8ZM19 36.1H24.4L21.7 29L19 36.1ZM29.5984 41C29.4384 41 29.2984 40.94 29.1784 40.82C29.0584 40.7 28.9984 40.56 28.9984 40.4C28.9984 40.3 29.0084 40.19 29.0284 40.07L36.4684 20.66C36.5484 20.46 36.6584 20.3 36.7984 20.18C36.9384 20.06 37.1484 20 37.4284 20H39.4684C39.7284 20 39.9284 20.06 40.0684 20.18C40.2284 20.3 40.3484 20.46 40.4284 20.66L47.8384 40.07C47.8784 40.19 47.8984 40.3 47.8984 40.4C47.8984 40.56 47.8384 40.7 47.7184 40.82C47.5984 40.94 47.4584 41 47.2984 41H45.7684C45.5284 41 45.3484 40.94 45.2284 40.82C45.1284 40.7 45.0584 40.59 45.0184 40.49L43.3684 36.23H33.5284L31.8784 40.49C31.8584 40.59 31.7884 40.7 31.6684 40.82C31.5484 40.94 31.3684 41 31.1284 41H29.5984ZM34.3984 33.65H42.4984L38.4484 23L34.3984 33.65Z" fill="#3D4754"/>
</svg>
