<svg width="668" height="105" viewBox="0 0 668 105" fill="none" xmlns="http://www.w3.org/2000/svg">
<rect width="667.701" height="105" rx="19.6497" transform="matrix(-1 0 0 1 667.701 0)" fill="url(#paint0_linear_134_500)"/>
<path d="M65.4571 55.0866V61.6058C65.4571 66.1565 63.8957 69.2115 63.8278 69.3346C63.7643 69.4668 63.6738 69.5853 63.5617 69.6832C63.4496 69.7811 63.3182 69.8564 63.1752 69.9046C63.0322 69.9528 62.8806 69.9729 62.7294 69.9637C62.5782 69.9546 62.4304 69.9164 62.2949 69.8514C62.1593 69.7863 62.0387 69.6958 61.9403 69.5852C61.8419 69.4746 61.7676 69.3461 61.7218 69.2074C61.6761 69.0686 61.6598 68.9225 61.674 68.7776C61.6882 68.6328 61.7325 68.4921 61.8044 68.364C61.8176 68.3386 63.1942 65.6133 63.1942 61.6058V55.0866C63.1942 54.4142 62.916 53.7693 62.4209 53.2939C61.9258 52.8184 61.2543 52.5513 60.5542 52.5513C59.854 52.5513 59.1825 52.8184 58.6874 53.2939C58.1923 53.7693 57.9141 54.4142 57.9141 55.0866V55.8109C57.9141 56.0991 57.7949 56.3755 57.5828 56.5792C57.3706 56.783 57.0828 56.8975 56.7827 56.8975C56.4826 56.8975 56.1948 56.783 55.9827 56.5792C55.7705 56.3755 55.6513 56.0991 55.6513 55.8109V52.1892C55.6513 51.5168 55.3731 50.8719 54.878 50.3965C54.3829 49.921 53.7114 49.6539 53.0112 49.6539C52.3111 49.6539 51.6396 49.921 51.1445 50.3965C50.6494 50.8719 50.3712 51.5168 50.3712 52.1892V54.3622C50.3712 54.6504 50.252 54.9267 50.0398 55.1305C49.8276 55.3343 49.5399 55.4487 49.2398 55.4487C48.9397 55.4487 48.6519 55.3343 48.4397 55.1305C48.2276 54.9267 48.1083 54.6504 48.1083 54.3622V42.0482C48.1083 41.3758 47.8302 40.731 47.3351 40.2555C46.84 39.7801 46.1685 39.5129 45.4683 39.5129C44.7681 39.5129 44.0966 39.7801 43.6015 40.2555C43.1064 40.731 42.8283 41.3758 42.8283 42.0482V61.6058C42.828 61.8416 42.7478 62.071 42.5998 62.2593C42.4518 62.4475 42.244 62.5844 42.0078 62.6492C41.7716 62.7141 41.5199 62.7033 41.2907 62.6186C41.0614 62.534 40.8671 62.3799 40.737 62.1798L37.2145 56.7472C37.2071 56.7375 37.2008 56.7272 37.1956 56.7164C36.8455 56.134 36.2689 55.7091 35.5925 55.5351C34.9162 55.361 34.1956 55.4521 33.5892 55.7883C32.9828 56.1245 32.5403 56.6782 32.359 57.3277C32.1778 57.9772 32.2726 58.6693 32.6227 59.2516L38.146 68.306C38.2327 68.4295 38.2921 68.5688 38.3204 68.7152C38.3486 68.8617 38.3453 69.0121 38.3105 69.1573C38.2757 69.3024 38.2102 69.4391 38.1181 69.5589C38.0259 69.6787 37.9092 69.7791 37.7749 69.8537C37.6407 69.9283 37.492 69.9757 37.3379 69.9928C37.1839 70.0099 37.0278 69.9964 36.8794 69.9532C36.731 69.91 36.5934 69.8379 36.4752 69.7414C36.3571 69.645 36.2608 69.5262 36.1924 69.3926L30.6634 60.3381C30.01 59.2575 29.8304 57.9719 30.1641 56.7641C30.4977 55.5563 31.3173 54.5252 32.4426 53.8977C33.5679 53.2702 34.9067 53.0977 36.1644 53.4182C37.4221 53.7386 38.4958 54.5257 39.1492 55.6063L40.5654 57.8029V42.0482C40.5654 40.7995 41.082 39.6019 42.0014 38.7189C42.9209 37.8359 44.168 37.3399 45.4683 37.3399C46.7687 37.3399 48.0157 37.8359 48.9352 38.7189C49.8547 39.6019 50.3712 40.7995 50.3712 42.0482V48.2233C51.0374 47.814 51.7968 47.5656 52.5847 47.4992C53.3725 47.4328 54.1654 47.5504 54.8956 47.842C55.6259 48.1336 56.2718 48.5905 56.7784 49.1737C57.285 49.7569 57.6371 50.4491 57.8048 51.1914C58.5418 50.712 59.4009 50.4343 60.2898 50.3882C61.1787 50.3421 62.0639 50.5293 62.8504 50.9297C63.6369 51.33 64.2951 51.9285 64.7543 52.6608C65.2135 53.3931 65.4565 54.2317 65.4571 55.0866ZM71.8686 38.7886H61.0218L65.1252 34.8481C65.3344 34.6437 65.451 34.3681 65.4496 34.0815C65.4482 33.7948 65.329 33.5203 65.1178 33.3178C64.9066 33.1152 64.6206 33.001 64.3221 33C64.0236 32.999 63.7368 33.1113 63.5242 33.3125L57.4899 39.1073C57.278 39.311 57.159 39.5872 57.159 39.8751C57.159 40.1631 57.278 40.4392 57.4899 40.6429L63.5242 46.4378C63.7368 46.6389 64.0236 46.7512 64.3221 46.7502C64.6206 46.7492 64.9066 46.635 65.1178 46.4325C65.329 46.2299 65.4482 45.9554 65.4496 45.6688C65.451 45.3821 65.3344 45.1066 65.1252 44.9021L61.0218 40.9617H71.8686C72.1686 40.9617 72.4564 40.8472 72.6686 40.6434C72.8808 40.4397 73 40.1633 73 39.8751C73 39.587 72.8808 39.3106 72.6686 39.1068C72.4564 38.9031 72.1686 38.7886 71.8686 38.7886Z" fill="white"/>
<defs>
<linearGradient id="paint0_linear_134_500" x1="3.6464e-06" y1="52.5" x2="296.303" y2="384.232" gradientUnits="userSpaceOnUse">
<stop stop-color="#4AD9EA"/>
<stop offset="1" stop-color="#3365E2"/>
</linearGradient>
</defs>
</svg>
